<mxfile host="app.diagrams.net" modified="2024-05-15T09:46:06.468Z" agent="Mozilla/5.0 (Macintosh; Intel Mac OS X 10_15_7) AppleWebKit/537.36 (KHTML, like Gecko) Chrome/124.0.0.0 Safari/537.36" etag="4aw2MXVF5C-H_CTAPtFG" version="24.4.0" type="github">
  <diagram name="Page-1" id="0rQ8l_uULcwl3JOyv1s8">
    <mxGraphModel dx="2519" dy="1021" grid="1" gridSize="10" guides="1" tooltips="1" connect="1" arrows="1" fold="1" page="1" pageScale="1" pageWidth="850" pageHeight="1100" math="0" shadow="0">
      <root>
        <mxCell id="0" />
        <mxCell id="1" parent="0" />
        <mxCell id="Dd-oAojNrdIVEVdC_ifS-1" value="" style="whiteSpace=wrap;html=1;aspect=fixed;" parent="1" vertex="1">
          <mxGeometry x="-420" y="50" width="1500" height="1500" as="geometry" />
        </mxCell>
        <mxCell id="Dd-oAojNrdIVEVdC_ifS-16" value="" style="group" parent="1" vertex="1" connectable="0">
          <mxGeometry x="70" y="640" width="380" height="260" as="geometry" />
        </mxCell>
        <mxCell id="Dd-oAojNrdIVEVdC_ifS-11" value="Visual" style="rounded=1;whiteSpace=wrap;html=1;fillColor=#dae8fc;strokeColor=#6c8ebf;verticalAlign=top;" parent="Dd-oAojNrdIVEVdC_ifS-16" vertex="1">
          <mxGeometry width="380" height="260" as="geometry" />
        </mxCell>
        <mxCell id="Dd-oAojNrdIVEVdC_ifS-12" value="MWI" style="sketch=0;points=[[0,0,0],[0.25,0,0],[0.5,0,0],[0.75,0,0],[1,0,0],[0,1,0],[0.25,1,0],[0.5,1,0],[0.75,1,0],[1,1,0],[0,0.25,0],[0,0.5,0],[0,0.75,0],[1,0.25,0],[1,0.5,0],[1,0.75,0]];outlineConnect=0;fontColor=#232F3E;fillColor=#C925D1;strokeColor=#ffffff;dashed=0;verticalLabelPosition=bottom;verticalAlign=top;align=center;html=1;fontSize=12;fontStyle=0;aspect=fixed;shape=mxgraph.aws4.resourceIcon;resIcon=mxgraph.aws4.database;" parent="Dd-oAojNrdIVEVdC_ifS-16" vertex="1">
          <mxGeometry x="13.571428571428573" y="79.3" width="101.4" height="101.4" as="geometry" />
        </mxCell>
        <mxCell id="Dd-oAojNrdIVEVdC_ifS-13" value="MWISPR" style="sketch=0;points=[[0,0,0],[0.25,0,0],[0.5,0,0],[0.75,0,0],[1,0,0],[0,1,0],[0.25,1,0],[0.5,1,0],[0.75,1,0],[1,1,0],[0,0.25,0],[0,0.5,0],[0,0.75,0],[1,0.25,0],[1,0.5,0],[1,0.75,0]];outlineConnect=0;fontColor=#232F3E;fillColor=#C925D1;strokeColor=#ffffff;dashed=0;verticalLabelPosition=bottom;verticalAlign=top;align=center;html=1;fontSize=12;fontStyle=0;aspect=fixed;shape=mxgraph.aws4.resourceIcon;resIcon=mxgraph.aws4.database;" parent="Dd-oAojNrdIVEVdC_ifS-16" vertex="1">
          <mxGeometry x="135.71428571428572" y="79.3" width="101.4" height="101.4" as="geometry" />
        </mxCell>
        <mxCell id="Dd-oAojNrdIVEVdC_ifS-14" value="MWIFSR" style="sketch=0;points=[[0,0,0],[0.25,0,0],[0.5,0,0],[0.75,0,0],[1,0,0],[0,1,0],[0.25,1,0],[0.5,1,0],[0.75,1,0],[1,1,0],[0,0.25,0],[0,0.5,0],[0,0.75,0],[1,0.25,0],[1,0.5,0],[1,0.75,0]];outlineConnect=0;fontColor=#232F3E;fillColor=#C925D1;strokeColor=#ffffff;dashed=0;verticalLabelPosition=bottom;verticalAlign=top;align=center;html=1;fontSize=12;fontStyle=0;aspect=fixed;shape=mxgraph.aws4.resourceIcon;resIcon=mxgraph.aws4.database;" parent="Dd-oAojNrdIVEVdC_ifS-16" vertex="1">
          <mxGeometry x="257.8571428571429" y="79.3" width="101.4" height="101.4" as="geometry" />
        </mxCell>
        <mxCell id="Dd-oAojNrdIVEVdC_ifS-15" value="Data sources in Visual, MWI Precision, MWI Springs, and MWI Fasteners" style="text;html=1;align=center;verticalAlign=middle;whiteSpace=wrap;rounded=0;fontSize=11;" parent="Dd-oAojNrdIVEVdC_ifS-16" vertex="1">
          <mxGeometry x="12.214285714285715" y="221" width="352.8571428571429" height="39" as="geometry" />
        </mxCell>
        <mxCell id="Dd-oAojNrdIVEVdC_ifS-22" value="" style="group;verticalAlign=top;" parent="1" vertex="1" connectable="0">
          <mxGeometry x="220" y="70" width="800" height="430" as="geometry" />
        </mxCell>
        <mxCell id="Dd-oAojNrdIVEVdC_ifS-2" value="SNAP/QQ" style="rounded=1;whiteSpace=wrap;html=1;fillColor=#dae8fc;strokeColor=#6c8ebf;verticalAlign=top;" parent="Dd-oAojNrdIVEVdC_ifS-22" vertex="1">
          <mxGeometry width="800" height="430" as="geometry" />
        </mxCell>
        <mxCell id="xVXEDt9beChbhycmY61z-4" style="edgeStyle=orthogonalEdgeStyle;rounded=0;orthogonalLoop=1;jettySize=auto;html=1;exitX=1;exitY=0.5;exitDx=0;exitDy=0;entryX=0;entryY=0.5;entryDx=0;entryDy=0;startArrow=classic;startFill=1;endArrow=none;endFill=0;" edge="1" parent="Dd-oAojNrdIVEVdC_ifS-22" source="Dd-oAojNrdIVEVdC_ifS-5" target="xVXEDt9beChbhycmY61z-1">
          <mxGeometry relative="1" as="geometry" />
        </mxCell>
        <mxCell id="xVXEDt9beChbhycmY61z-18" style="edgeStyle=orthogonalEdgeStyle;rounded=0;orthogonalLoop=1;jettySize=auto;html=1;exitX=0.5;exitY=1;exitDx=0;exitDy=0;" edge="1" parent="Dd-oAojNrdIVEVdC_ifS-22" source="Dd-oAojNrdIVEVdC_ifS-5" target="Dd-oAojNrdIVEVdC_ifS-9">
          <mxGeometry relative="1" as="geometry" />
        </mxCell>
        <mxCell id="Dd-oAojNrdIVEVdC_ifS-5" value="Quoting" style="rounded=1;whiteSpace=wrap;html=1;verticalAlign=top;fillColor=#f5f5f5;strokeColor=#666666;fontColor=#333333;" parent="Dd-oAojNrdIVEVdC_ifS-22" vertex="1">
          <mxGeometry x="25" y="40" width="355" height="180" as="geometry" />
        </mxCell>
        <mxCell id="Dd-oAojNrdIVEVdC_ifS-6" value="Part&lt;div&gt;Configurator&lt;/div&gt;" style="shape=cube;whiteSpace=wrap;html=1;boundedLbl=1;backgroundOutline=1;darkOpacity=0.05;darkOpacity2=0.1;fillColor=#1ba1e2;strokeColor=#006EAF;fontColor=#ffffff;" parent="Dd-oAojNrdIVEVdC_ifS-22" vertex="1">
          <mxGeometry x="40" y="95" width="130" height="80" as="geometry" />
        </mxCell>
        <mxCell id="xVXEDt9beChbhycmY61z-11" style="edgeStyle=orthogonalEdgeStyle;rounded=0;orthogonalLoop=1;jettySize=auto;html=1;" edge="1" parent="Dd-oAojNrdIVEVdC_ifS-22" source="Dd-oAojNrdIVEVdC_ifS-7">
          <mxGeometry relative="1" as="geometry">
            <mxPoint x="40" y="570" as="targetPoint" />
          </mxGeometry>
        </mxCell>
        <mxCell id="xVXEDt9beChbhycmY61z-12" value="Store URLs to Documents" style="edgeLabel;html=1;align=center;verticalAlign=middle;resizable=0;points=[];" vertex="1" connectable="0" parent="xVXEDt9beChbhycmY61z-11">
          <mxGeometry x="-0.654" y="-2" relative="1" as="geometry">
            <mxPoint x="-34" y="2" as="offset" />
          </mxGeometry>
        </mxCell>
        <mxCell id="Dd-oAojNrdIVEVdC_ifS-7" value="AWS S3 Document Storage" style="sketch=0;points=[[0,0,0],[0.25,0,0],[0.5,0,0],[0.75,0,0],[1,0,0],[0,1,0],[0.25,1,0],[0.5,1,0],[0.75,1,0],[1,1,0],[0,0.25,0],[0,0.5,0],[0,0.75,0],[1,0.25,0],[1,0.5,0],[1,0.75,0]];outlineConnect=0;fontColor=#232F3E;fillColor=#7AA116;strokeColor=#ffffff;dashed=0;verticalLabelPosition=bottom;verticalAlign=top;align=center;html=1;fontSize=12;fontStyle=0;aspect=fixed;shape=mxgraph.aws4.resourceIcon;resIcon=mxgraph.aws4.s3;" parent="Dd-oAojNrdIVEVdC_ifS-22" vertex="1">
          <mxGeometry x="256" y="330" width="78" height="78" as="geometry" />
        </mxCell>
        <mxCell id="Dd-oAojNrdIVEVdC_ifS-9" value="PostgreSQL" style="sketch=0;outlineConnect=0;fontColor=#232F3E;gradientColor=none;fillColor=#C925D1;strokeColor=none;dashed=0;verticalLabelPosition=bottom;verticalAlign=top;align=center;html=1;fontSize=12;fontStyle=0;aspect=fixed;pointerEvents=1;shape=mxgraph.aws4.rds_instance;" parent="Dd-oAojNrdIVEVdC_ifS-22" vertex="1">
          <mxGeometry x="400" y="330" width="78" height="78" as="geometry" />
        </mxCell>
        <mxCell id="Dd-oAojNrdIVEVdC_ifS-18" value="Part Options API" style="shape=cube;whiteSpace=wrap;html=1;boundedLbl=1;backgroundOutline=1;darkOpacity=0.05;darkOpacity2=0.1;fillColor=#1ba1e2;strokeColor=#006EAF;fontColor=#ffffff;" parent="Dd-oAojNrdIVEVdC_ifS-22" vertex="1">
          <mxGeometry x="230" y="100" width="130" height="80" as="geometry" />
        </mxCell>
        <mxCell id="Dd-oAojNrdIVEVdC_ifS-19" style="edgeStyle=orthogonalEdgeStyle;rounded=0;orthogonalLoop=1;jettySize=auto;html=1;exitX=0;exitY=0;exitDx=130;exitDy=50;exitPerimeter=0;entryX=0;entryY=0;entryDx=0;entryDy=30;entryPerimeter=0;startArrow=classic;startFill=1;" parent="Dd-oAojNrdIVEVdC_ifS-22" source="Dd-oAojNrdIVEVdC_ifS-6" target="Dd-oAojNrdIVEVdC_ifS-18" edge="1">
          <mxGeometry relative="1" as="geometry" />
        </mxCell>
        <mxCell id="Dd-oAojNrdIVEVdC_ifS-21" style="edgeStyle=orthogonalEdgeStyle;rounded=0;orthogonalLoop=1;jettySize=auto;html=1;exitX=0.5;exitY=1;exitDx=0;exitDy=0;entryX=0.5;entryY=0;entryDx=0;entryDy=0;entryPerimeter=0;startArrow=classic;startFill=1;" parent="Dd-oAojNrdIVEVdC_ifS-22" source="Dd-oAojNrdIVEVdC_ifS-5" target="Dd-oAojNrdIVEVdC_ifS-7" edge="1">
          <mxGeometry relative="1" as="geometry" />
        </mxCell>
        <mxCell id="xVXEDt9beChbhycmY61z-2" value="" style="group" vertex="1" connectable="0" parent="Dd-oAojNrdIVEVdC_ifS-22">
          <mxGeometry x="430" y="65" width="330" height="130" as="geometry" />
        </mxCell>
        <mxCell id="xVXEDt9beChbhycmY61z-1" value="Configurations" style="rounded=1;whiteSpace=wrap;html=1;fillColor=#f5f5f5;strokeColor=#666666;verticalAlign=top;fontColor=#333333;" vertex="1" parent="xVXEDt9beChbhycmY61z-2">
          <mxGeometry width="330" height="130" as="geometry" />
        </mxCell>
        <mxCell id="Dd-oAojNrdIVEVdC_ifS-25" value="Product&lt;div&gt;Codes&lt;/div&gt;" style="rhombus;whiteSpace=wrap;html=1;fillColor=#647687;fontColor=#ffffff;strokeColor=#314354;" parent="xVXEDt9beChbhycmY61z-2" vertex="1">
          <mxGeometry x="20" y="30" width="80" height="80" as="geometry" />
        </mxCell>
        <mxCell id="Dd-oAojNrdIVEVdC_ifS-24" value="Site" style="rhombus;whiteSpace=wrap;html=1;fillColor=#647687;fontColor=#ffffff;strokeColor=#314354;" parent="xVXEDt9beChbhycmY61z-2" vertex="1">
          <mxGeometry x="125" y="30" width="80" height="80" as="geometry" />
        </mxCell>
        <mxCell id="Dd-oAojNrdIVEVdC_ifS-27" value="Material&lt;div&gt;Parts&lt;/div&gt;" style="rhombus;whiteSpace=wrap;html=1;fillColor=#647687;fontColor=#ffffff;strokeColor=#314354;" parent="xVXEDt9beChbhycmY61z-2" vertex="1">
          <mxGeometry x="230" y="30" width="80" height="80" as="geometry" />
        </mxCell>
        <mxCell id="xVXEDt9beChbhycmY61z-14" value="Configurations allow us to specify business logic for actions/reactions within modules of the application." style="text;html=1;align=left;verticalAlign=top;whiteSpace=wrap;rounded=0;" vertex="1" parent="Dd-oAojNrdIVEVdC_ifS-22">
          <mxGeometry x="460" y="200" width="260" height="70" as="geometry" />
        </mxCell>
        <mxCell id="xVXEDt9beChbhycmY61z-19" style="edgeStyle=orthogonalEdgeStyle;rounded=0;orthogonalLoop=1;jettySize=auto;html=1;exitX=0.5;exitY=1;exitDx=0;exitDy=0;" edge="1" parent="1" source="Dd-oAojNrdIVEVdC_ifS-5" target="Dd-oAojNrdIVEVdC_ifS-11">
          <mxGeometry relative="1" as="geometry" />
        </mxCell>
        <mxCell id="xVXEDt9beChbhycmY61z-20" value="Sync data" style="edgeLabel;html=1;align=center;verticalAlign=middle;resizable=0;points=[];" vertex="1" connectable="0" parent="xVXEDt9beChbhycmY61z-19">
          <mxGeometry x="-0.6067" y="1" relative="1" as="geometry">
            <mxPoint as="offset" />
          </mxGeometry>
        </mxCell>
        <mxCell id="xVXEDt9beChbhycmY61z-22" value="" style="shape=link;html=1;rounded=0;" edge="1" parent="1">
          <mxGeometry width="100" relative="1" as="geometry">
            <mxPoint x="160" y="200" as="sourcePoint" />
            <mxPoint x="260" y="200" as="targetPoint" />
          </mxGeometry>
        </mxCell>
        <mxCell id="xVXEDt9beChbhycmY61z-23" value="Part Configurator" style="shape=cube;whiteSpace=wrap;html=1;boundedLbl=1;backgroundOutline=1;darkOpacity=0.05;darkOpacity2=0.1;fillColor=#1ba1e2;fontColor=#ffffff;strokeColor=#006EAF;verticalAlign=top;" vertex="1" parent="1">
          <mxGeometry x="-350" y="100" width="510" height="320" as="geometry" />
        </mxCell>
        <mxCell id="xVXEDt9beChbhycmY61z-32" value="Cold Heading Template&lt;div&gt;- Operation Flow&lt;/div&gt;&lt;div&gt;- Requirements&lt;/div&gt;" style="rounded=0;whiteSpace=wrap;html=1;fillColor=#647687;fontColor=#ffffff;strokeColor=#314354;align=left;verticalAlign=top;" vertex="1" parent="1">
          <mxGeometry x="-300" y="160" width="150" height="60" as="geometry" />
        </mxCell>
        <mxCell id="xVXEDt9beChbhycmY61z-33" value="Other Product Templates&lt;div&gt;- Operation Flow&lt;/div&gt;&lt;div&gt;- Requirements&lt;/div&gt;" style="rounded=0;whiteSpace=wrap;html=1;fillColor=#647687;fontColor=#ffffff;strokeColor=#314354;align=left;verticalAlign=top;" vertex="1" parent="1">
          <mxGeometry x="-110" y="160" width="150" height="60" as="geometry" />
        </mxCell>
        <mxCell id="xVXEDt9beChbhycmY61z-34" value="Other Product Templates&lt;div&gt;- Operation Flow&lt;/div&gt;&lt;div&gt;- Requirements&lt;/div&gt;" style="rounded=0;whiteSpace=wrap;html=1;fillColor=#647687;fontColor=#ffffff;strokeColor=#314354;align=left;verticalAlign=top;" vertex="1" parent="1">
          <mxGeometry x="-100" y="170" width="150" height="60" as="geometry" />
        </mxCell>
        <mxCell id="xVXEDt9beChbhycmY61z-35" value="Other Product Templates&lt;div&gt;- Operation Flow&lt;/div&gt;&lt;div&gt;- Requirements&lt;/div&gt;" style="rounded=0;whiteSpace=wrap;html=1;fillColor=#647687;fontColor=#ffffff;strokeColor=#314354;align=left;verticalAlign=top;" vertex="1" parent="1">
          <mxGeometry x="-90" y="180" width="150" height="60" as="geometry" />
        </mxCell>
        <mxCell id="xVXEDt9beChbhycmY61z-36" value="Other Product Templates&lt;div&gt;- Operation Flow&lt;/div&gt;&lt;div&gt;- Requirements&lt;/div&gt;" style="rounded=0;whiteSpace=wrap;html=1;fillColor=#647687;fontColor=#ffffff;strokeColor=#314354;align=left;verticalAlign=top;" vertex="1" parent="1">
          <mxGeometry x="-80" y="190" width="150" height="60" as="geometry" />
        </mxCell>
        <mxCell id="xVXEDt9beChbhycmY61z-38" style="edgeStyle=orthogonalEdgeStyle;rounded=0;orthogonalLoop=1;jettySize=auto;html=1;entryX=0.5;entryY=1;entryDx=0;entryDy=0;" edge="1" parent="1" source="xVXEDt9beChbhycmY61z-37" target="xVXEDt9beChbhycmY61z-32">
          <mxGeometry relative="1" as="geometry" />
        </mxCell>
        <mxCell id="xVXEDt9beChbhycmY61z-39" style="edgeStyle=orthogonalEdgeStyle;rounded=0;orthogonalLoop=1;jettySize=auto;html=1;exitX=1;exitY=0.5;exitDx=0;exitDy=0;" edge="1" parent="1" source="xVXEDt9beChbhycmY61z-37" target="xVXEDt9beChbhycmY61z-36">
          <mxGeometry relative="1" as="geometry" />
        </mxCell>
        <mxCell id="xVXEDt9beChbhycmY61z-37" value="Template&lt;div&gt;Manager&lt;/div&gt;" style="rhombus;whiteSpace=wrap;html=1;fillColor=#6d8764;fontColor=#ffffff;strokeColor=#3A5431;" vertex="1" parent="1">
          <mxGeometry x="-295" y="270" width="140" height="140" as="geometry" />
        </mxCell>
        <mxCell id="xVXEDt9beChbhycmY61z-40" value="Template Manager would be based on configurations for Product Codes and Sites" style="text;html=1;align=center;verticalAlign=middle;whiteSpace=wrap;rounded=0;" vertex="1" parent="1">
          <mxGeometry x="-170" y="360" width="180" height="30" as="geometry" />
        </mxCell>
      </root>
    </mxGraphModel>
  </diagram>
</mxfile>
